<svg width="930" height="310" viewBox="0 0 930 310" fill="none" xmlns="http://www.w3.org/2000/svg">
<path d="M341.333 125.24H321.145V0H341.333V53.4605H370.306L403.205 0H426.197L387.316 62.059L426.01 125.24H402.831L370.68 72.9007H341.333V125.24Z" fill="black"/>
<path d="M453.919 20.5617H433.918L433.731 0H453.919V20.5617ZM454.105 125.24H433.918V31.7772H454.105V125.24Z" fill="black"/>
<path d="M510.793 125.24C490.045 125.24 479.203 117.576 479.203 96.6401V49.1612H463.688V32.338H479.577L483.876 9.34624H499.391V32.338H527.43V49.1612H499.391V95.7055C499.391 105.426 503.503 107.108 516.027 107.108H527.43V123.557C523.504 124.492 517.149 125.24 510.793 125.24Z" fill="black"/>
<path d="M579.495 127.296C550.522 127.296 534.073 107.669 534.073 78.8822C534.073 49.9089 551.083 30.4687 580.243 30.4687C604.73 30.4687 621.554 45.6096 621.554 67.8537V69.536H601.553V68.4145C601.553 54.7689 594.449 48.6004 578.935 48.6004C560.99 48.6004 554.074 58.6944 554.074 78.8822C554.074 99.0701 560.99 108.977 578.935 108.977C594.449 108.977 601.553 102.996 601.553 89.35V88.2285H621.554V89.9108C621.554 111.968 604.543 127.296 579.495 127.296Z" fill="black"/>
<path d="M657.12 125.24H636.932V0H657.12V47.8527H657.868C662.167 39.4411 672.074 30.4687 688.898 30.4687C713.198 30.4687 723.479 46.3573 723.479 66.7321V125.24H703.291V71.4053C703.291 54.7689 698.057 47.8527 681.047 47.8527C664.597 47.8527 657.12 54.2082 657.12 71.7791V125.24Z" fill="black"/>
<path d="M784.301 127.109C753.645 127.109 739.252 107.669 739.252 78.6953C739.252 49.9089 756.449 30.4687 784.114 30.4687C809.162 30.4687 826.733 45.4227 826.733 70.8445C826.733 75.7045 826.172 80.7515 825.611 83.5554H758.131C758.879 100.566 765.047 109.164 784.488 109.164C800.002 109.164 805.984 103.93 805.984 95.5185V94.0231H825.985V95.7055C825.985 114.772 809.349 127.109 784.301 127.109ZM783.74 47.4789C766.169 47.4789 759.44 55.7036 758.318 70.0968H807.479C808.227 54.2082 799.629 47.4789 783.74 47.4789Z" fill="black"/>
<path d="M863.03 125.24H842.842V32.338H861.347V49.722H862.095C866.394 39.815 876.301 30.4687 894.433 30.4687C918.546 30.4687 929.388 45.7966 929.388 66.9191V125.24H909.2V71.4053C909.2 54.7689 903.966 47.8527 886.956 47.8527C870.507 47.8527 863.03 54.2082 863.03 71.5922V125.24Z" fill="black"/>
<path d="M371.802 279.445C335.725 279.445 320.023 262.809 320.023 238.696V235.518H339.837V237.574C339.837 253.089 346.38 260.94 372.549 260.94C391.055 260.94 397.784 255.893 397.784 244.303C397.784 232.901 394.046 228.789 374.792 224.863L353.483 220.564C331.987 216.452 320.397 205.984 320.397 186.17C320.397 167.664 334.79 150.467 367.128 150.467C401.71 150.467 415.542 169.907 415.542 192.151V194.395H395.728V192.338C395.728 177.011 388.999 168.973 366.568 168.973C348.062 168.973 340.585 174.207 340.585 185.235C340.585 196.638 345.632 199.815 362.829 203.554L384.139 208.04C407.691 212.9 417.972 224.676 417.972 243.556C417.972 263.183 403.766 279.445 371.802 279.445Z" fill="black"/>
<path d="M453.584 277.576H433.396V152.336H453.584V200.189H454.332C458.631 191.778 468.538 182.805 485.361 182.805C509.662 182.805 519.942 198.694 519.942 219.069V277.576H499.755V223.742C499.755 207.105 494.521 200.189 477.51 200.189C461.061 200.189 453.584 206.545 453.584 224.116V277.576Z" fill="black"/>
<path d="M582.073 279.445C553.473 279.445 535.716 260.005 535.716 231.032C535.716 202.245 553.473 182.805 582.073 182.805C610.486 182.805 627.683 202.245 627.683 231.032C627.683 260.005 610.486 279.445 582.073 279.445ZM582.073 261.501C601.513 261.501 608.242 251.967 608.242 231.032C608.242 210.283 601.513 200.75 582.073 200.75C562.446 200.75 555.53 210.283 555.53 231.032C555.53 251.967 562.446 261.501 582.073 261.501Z" fill="black"/>
<path d="M662.027 309.914H642.026V184.674H660.345V200.002H661.279C665.579 189.161 676.233 182.805 692.309 182.805C718.478 182.805 732.872 201.685 732.872 231.219C732.872 260.566 718.852 279.445 693.617 279.445C676.981 279.445 666.7 271.781 662.588 263.183H662.027V309.914ZM662.027 239.443C662.027 254.958 671 262.248 687.449 262.248C705.207 262.248 712.684 254.024 712.684 231.219C712.684 208.227 705.394 200.002 687.449 200.002C671 200.002 662.027 207.292 662.027 222.807V239.443Z" fill="black"/>
<path fill-rule="evenodd" clip-rule="evenodd" d="M236.438 154.307L236.435 153.918C236.427 152.719 236.419 151.564 236.411 150.45C236.42 151.684 236.428 152.969 236.438 154.307ZM233.356 113.44C233.349 113.422 233.342 113.405 233.336 113.388L233.32 113.348C233.332 113.379 233.344 113.409 233.356 113.44Z" fill="#FFB700"/>
<path fill-rule="evenodd" clip-rule="evenodd" d="M279.219 0H77.9297L0 187.898V244.32C0 263.594 15.625 279.219 34.9062 279.219C54.1797 279.219 69.8047 263.594 69.8047 244.32C69.8047 252.836 72.8594 260.641 77.9297 266.703C81.1797 270.594 85.2656 273.766 89.9062 275.945C94.3984 278.047 99.4141 279.219 104.703 279.219C123.984 279.219 139.609 263.594 139.609 244.32C139.609 263.594 155.234 279.219 174.516 279.219C177.891 279.219 181.156 278.742 184.242 277.844C187.344 276.945 190.273 275.625 192.961 273.953V202.109H236.411L236.688 187.562L236.445 155.422C236.253 127.528 236.243 122.142 234.73 117.217C234.343 115.954 233.856 114.722 233.242 113.148C231.164 107.773 227.625 102.484 223.211 98.125C206.344 81.4922 179.578 81.4922 162.711 98.125C156.461 104.281 152.336 111.844 150.492 120.273C150.062 122.406 149.625 127.695 149.477 133.609L149.188 143.445H105.703V132.156C105.703 124.641 105.945 119.305 106.43 116.109C112.195 77.7109 141.82 48.1406 180.258 42.375C182.789 41.9766 186.875 41.7578 191.172 41.7109C194.648 41.6797 198.266 41.7578 201.305 41.9375C203.227 42.0547 204.914 42.2187 206.195 42.4219C243.727 48.25 272.844 77.125 279.219 114.5V0ZM132.172 159.109C140.266 170.891 145.789 180.773 148.164 187.898C149.281 191.195 149.43 192.266 149.234 196.289C149.086 200.219 148.797 201.328 147.484 204.094C144.727 209.812 140.508 213.594 134.492 215.727C132.117 216.555 130.766 216.695 126.547 216.555C124.32 216.484 122.977 216.398 121.844 216.164C120.625 215.914 119.641 215.484 118.062 214.711C113.602 212.578 109.773 208.75 107.641 204.289C106.961 202.898 106.539 201.938 106.273 200.891C105.977 199.711 105.875 198.422 105.797 196.289C105.602 192.266 105.75 191.195 106.867 187.898C108.367 183.492 112.344 175.445 116.023 169.484C117.75 166.695 120.938 161.906 123.516 158.156C125.641 155.07 127.359 152.688 127.516 152.711C127.664 152.711 129.742 155.57 132.172 159.109Z" fill="#FFB700"/>
</svg>
