<svg width="1024" height="1024" viewBox="0 0 1024 1024" fill="none" xmlns="http://www.w3.org/2000/svg">
<g clip-path="url(#clip0_157_55)">
<path d="M405.261 484.971H387.266V373.332H405.261V420.987H431.088L460.414 373.332H480.909L446.25 428.651L480.742 484.971H460.08L431.421 438.316H405.261V484.971Z" fill="white"/>
<path d="M505.623 391.661H487.794L487.627 373.332H505.623V391.661ZM505.788 484.971H487.794V401.658H505.788V484.971Z" fill="white"/>
<path d="M556.319 484.972C537.825 484.972 528.16 478.14 528.16 459.478V417.155H514.33V402.159H528.494L532.326 381.664H546.156V402.159H571.15V417.155H546.156V458.645C546.156 467.309 549.821 468.809 560.985 468.809H571.15V483.471C567.65 484.305 561.985 484.972 556.319 484.972Z" fill="white"/>
<path d="M617.561 486.796C591.735 486.796 577.072 469.301 577.072 443.64C577.072 417.813 592.235 400.484 618.228 400.484C640.056 400.484 655.053 413.981 655.053 433.809V435.309H637.224V434.309C637.224 422.146 630.891 416.647 617.062 416.647C601.066 416.647 594.901 425.645 594.901 443.64C594.901 461.636 601.066 470.467 617.062 470.467C630.891 470.467 637.224 465.135 637.224 452.971V451.971H655.053V453.471C655.053 473.133 639.889 486.796 617.561 486.796Z" fill="white"/>
<path d="M686.753 484.971H668.758V373.332H686.753V415.988H687.42C691.252 408.49 700.083 400.492 715.08 400.492C736.741 400.492 745.906 414.655 745.906 432.817V484.971H727.91V436.983C727.91 422.153 723.244 415.988 708.082 415.988C693.418 415.988 686.753 421.653 686.753 437.316V484.971Z" fill="white"/>
<path d="M800.125 486.629C772.799 486.629 759.969 469.301 759.969 443.473C759.969 417.813 775.298 400.484 799.959 400.484C822.286 400.484 837.949 413.814 837.949 436.475C837.949 440.807 837.449 445.306 836.949 447.806H776.797C777.464 462.969 782.962 470.633 800.292 470.633C814.121 470.633 819.454 465.968 819.454 458.47V457.137H837.282V458.636C837.282 475.632 822.453 486.629 800.125 486.629ZM799.625 415.647C783.962 415.647 777.964 422.979 776.964 435.809H820.786C821.453 421.646 813.789 415.647 799.625 415.647Z" fill="white"/>
<path d="M870.302 484.963H852.307V402.151H868.802V417.647H869.469C873.301 408.816 882.132 400.484 898.295 400.484C919.789 400.484 929.454 414.148 929.454 432.976V484.963H911.458V436.975C911.458 422.146 906.792 415.98 891.63 415.98C876.967 415.98 870.302 421.646 870.302 437.142V484.963Z" fill="white"/>
<path d="M432.425 622.432C400.266 622.432 386.27 607.602 386.27 586.108V583.275H403.932V585.108C403.932 598.938 409.764 605.936 433.091 605.936C449.587 605.936 455.586 601.437 455.586 591.106C455.586 580.942 452.253 577.277 435.09 573.777L416.096 569.945C396.934 566.28 386.603 556.949 386.603 539.287C386.603 522.79 399.433 507.461 428.259 507.461C459.085 507.461 471.415 524.79 471.415 544.618V546.618H453.753V544.785C453.753 531.122 447.755 523.957 427.76 523.957C411.263 523.957 404.598 528.623 404.598 538.453C404.598 548.618 409.097 551.45 424.427 554.783L443.422 558.781C464.417 563.114 473.581 573.611 473.581 590.44C473.581 607.936 460.918 622.432 432.425 622.432Z" fill="white"/>
<path d="M505.324 620.768H487.328V509.129H505.324V551.785H505.99C509.823 544.287 518.654 536.289 533.65 536.289C555.311 536.289 564.475 550.452 564.475 568.615V620.768H546.48V572.78C546.48 557.95 541.815 551.785 526.651 551.785C511.989 551.785 505.324 557.451 505.324 573.113V620.768Z" fill="white"/>
<path d="M619.858 622.43C594.364 622.43 578.535 605.101 578.535 579.275C578.535 553.614 594.364 536.285 619.858 536.285C645.185 536.285 660.514 553.614 660.514 579.275C660.514 605.101 645.185 622.43 619.858 622.43ZM619.858 606.435C637.186 606.435 643.185 597.936 643.185 579.275C643.185 560.779 637.186 552.281 619.858 552.281C602.362 552.281 596.197 560.779 596.197 579.275C596.197 597.936 602.362 606.435 619.858 606.435Z" fill="white"/>
<path d="M691.132 649.59H673.303V537.951H689.632V551.615H690.465C694.298 541.951 703.795 536.285 718.125 536.285C741.452 536.285 754.283 553.115 754.283 579.441C754.283 605.601 741.785 622.43 719.291 622.43C704.462 622.43 695.297 615.598 691.632 607.934H691.132V649.59ZM691.132 586.772C691.132 600.602 699.13 607.1 713.793 607.1C729.622 607.1 736.287 599.77 736.287 579.441C736.287 558.946 729.789 551.615 713.793 551.615C699.13 551.615 691.132 558.113 691.132 571.943V586.772Z" fill="white"/>
<path fill-rule="evenodd" clip-rule="evenodd" d="M311.758 510.882L311.755 510.535C311.748 509.466 311.741 508.437 311.734 507.444C311.742 508.544 311.749 509.689 311.758 510.882ZM309.011 474.453C309.004 474.437 308.998 474.422 308.993 474.407L308.979 474.371C308.989 474.399 309 474.425 309.011 474.453Z" fill="#FFB700"/>
<path fill-rule="evenodd" clip-rule="evenodd" d="M349.895 373.332H170.466L101 540.824V591.118C101 608.299 114.928 622.227 132.115 622.227C149.296 622.227 163.224 608.299 163.224 591.118C163.224 598.71 165.947 605.667 170.466 611.071C173.363 614.539 177.006 617.366 181.142 619.309C185.147 621.183 189.618 622.227 194.332 622.227C211.519 622.227 225.447 608.299 225.447 591.118C225.447 608.299 239.375 622.227 256.563 622.227C259.572 622.227 262.482 621.802 265.233 621.002C267.998 620.2 270.609 619.024 273.005 617.533V553.492H311.736L311.983 540.524L311.767 511.875C311.595 487.01 311.587 482.209 310.238 477.819C309.893 476.693 309.459 475.595 308.911 474.192C307.059 469.401 303.904 464.686 299.97 460.8C284.935 445.974 261.075 445.974 246.04 460.8C240.469 466.288 236.792 473.03 235.148 480.543C234.765 482.444 234.375 487.159 234.243 492.431L233.986 501.199H195.223V491.136C195.223 484.437 195.439 479.68 195.871 476.831C201.01 442.603 227.418 416.244 261.682 411.105C263.938 410.75 267.58 410.555 271.41 410.513C274.509 410.485 277.734 410.555 280.443 410.715C282.156 410.82 283.66 410.966 284.802 411.147C318.258 416.342 344.213 442.081 349.895 475.397V373.332ZM218.818 515.161C226.033 525.664 230.956 534.473 233.073 540.824C234.069 543.763 234.202 544.718 234.027 548.304C233.895 551.807 233.637 552.795 232.467 555.261C230.009 560.358 226.249 563.729 220.886 565.631C218.769 566.369 217.565 566.493 213.804 566.369C211.819 566.305 210.621 566.229 209.611 566.02C208.525 565.797 207.648 565.414 206.24 564.725C202.265 562.824 198.851 559.411 196.951 555.435C196.345 554.195 195.969 553.339 195.732 552.406C195.468 551.354 195.377 550.205 195.307 548.304C195.133 544.718 195.265 543.763 196.261 540.824C197.598 536.896 201.143 529.723 204.423 524.41C205.962 521.924 208.804 517.655 211.102 514.312C212.996 511.561 214.528 509.438 214.667 509.458C214.799 509.458 216.652 512.007 218.818 515.161Z" fill="#FFB700"/>
</g>
<defs>
<clipPath id="clip0_157_55">
<rect width="829" height="276.333" fill="white" transform="translate(101 373.332)"/>
</clipPath>
</defs>
</svg>
