<svg width="1024" height="1024" viewBox="0 0 1024 1024" fill="none" xmlns="http://www.w3.org/2000/svg">
<g clip-path="url(#clip0_157_39)">
<path fill-rule="evenodd" clip-rule="evenodd" d="M929 98H332.815L102 654.522V821.635C102 878.721 148.279 925 205.386 925C262.471 925 308.75 878.721 308.75 821.635C308.75 846.858 317.797 869.975 332.815 887.93C342.441 899.454 354.542 908.849 368.287 915.303C381.592 921.529 396.448 925 412.113 925C469.22 925 515.499 878.721 515.499 821.635C515.499 878.721 561.777 925 618.887 925C628.883 925 638.554 923.587 647.694 920.928C656.882 918.265 665.557 914.355 673.518 909.403V696.613H802.21L803.03 653.527L802.311 558.334C801.742 475.717 801.712 459.764 797.231 445.177C796.085 441.436 794.642 437.787 792.824 433.125C786.669 417.206 776.187 401.54 763.114 388.63C713.156 339.366 633.88 339.366 583.923 388.63C565.411 406.863 553.194 429.263 547.732 454.229C546.459 460.546 545.164 476.211 544.726 493.728L543.87 522.86H415.075V489.424C415.075 467.166 415.791 451.361 417.228 441.895C434.303 328.167 522.047 240.584 635.894 223.508C643.39 222.328 655.493 221.68 668.22 221.541C678.515 221.448 689.231 221.68 698.232 222.212C703.924 222.559 708.921 223.045 712.715 223.647C823.879 240.908 910.118 326.431 929 437.13V98ZM493.471 569.254C517.444 604.151 533.803 633.419 540.837 654.522C544.145 664.288 544.587 667.46 544.006 679.375C543.568 691.015 542.712 694.3 538.823 702.492C530.657 719.428 518.161 730.63 500.343 736.947C493.309 739.4 489.307 739.814 476.811 739.4C470.215 739.189 466.237 738.935 462.882 738.242C459.271 737.501 456.357 736.228 451.68 733.938C438.47 727.621 427.129 716.283 420.815 703.07C418.801 698.95 417.551 696.107 416.763 693.006C415.886 689.511 415.584 685.693 415.353 679.375C414.775 667.46 415.214 664.288 418.522 654.522C422.965 641.473 434.744 617.639 445.641 599.983C450.756 591.723 460.198 577.539 467.834 566.432C474.128 557.291 479.216 550.236 479.681 550.304C480.119 550.304 486.274 558.772 493.471 569.254Z" fill="#FFB700"/>
<path fill-rule="evenodd" clip-rule="evenodd" d="M312.25 509.643L312.248 508.605C312.24 505.407 312.233 502.325 312.226 499.354C312.234 502.646 312.241 506.074 312.25 509.643ZM309.51 400.62C309.503 400.572 309.497 400.527 309.492 400.482L309.478 400.375C309.488 400.458 309.499 400.538 309.51 400.62Z" fill="#FFB700"/>
</g>
<defs>
<clipPath id="clip0_157_39">
<rect width="827" height="827" fill="white" transform="translate(102 98)"/>
</clipPath>
</defs>
</svg>
